<mxfile host="app.diagrams.net" modified="2023-07-28T15:58:35.921Z" agent="Mozilla/5.0 (Windows NT 10.0; Win64; x64) AppleWebKit/537.36 (KHTML, like Gecko) Chrome/114.0.0.0 YaBrowser/23.7.0.2526 Yowser/2.5 Safari/537.36" etag="j4dHjAzt3IAkrltt64ol" version="21.6.3" type="device">
  <diagram name="Страница 1" id="8WAXLvXDCw1kvgNpT2lC">
    <mxGraphModel dx="1290" dy="614" grid="1" gridSize="10" guides="1" tooltips="1" connect="1" arrows="1" fold="1" page="1" pageScale="1" pageWidth="827" pageHeight="1169" math="0" shadow="0">
      <root>
        <mxCell id="0" />
        <mxCell id="1" parent="0" />
        <mxCell id="0mrdC1juvUwRDSORbm4l-4" style="edgeStyle=orthogonalEdgeStyle;rounded=0;orthogonalLoop=1;jettySize=auto;html=1;entryX=0.5;entryY=0;entryDx=0;entryDy=0;" edge="1" parent="1" source="0mrdC1juvUwRDSORbm4l-1" target="0mrdC1juvUwRDSORbm4l-3">
          <mxGeometry relative="1" as="geometry" />
        </mxCell>
        <mxCell id="0mrdC1juvUwRDSORbm4l-1" value="Start" style="ellipse;whiteSpace=wrap;html=1;aspect=fixed;" vertex="1" parent="1">
          <mxGeometry x="230" width="70" height="70" as="geometry" />
        </mxCell>
        <mxCell id="0mrdC1juvUwRDSORbm4l-2" value="End" style="ellipse;whiteSpace=wrap;html=1;aspect=fixed;" vertex="1" parent="1">
          <mxGeometry x="540" y="280" width="70" height="70" as="geometry" />
        </mxCell>
        <mxCell id="0mrdC1juvUwRDSORbm4l-6" value="" style="edgeStyle=orthogonalEdgeStyle;rounded=0;orthogonalLoop=1;jettySize=auto;html=1;" edge="1" parent="1" source="0mrdC1juvUwRDSORbm4l-3" target="0mrdC1juvUwRDSORbm4l-5">
          <mxGeometry relative="1" as="geometry" />
        </mxCell>
        <mxCell id="0mrdC1juvUwRDSORbm4l-3" value="Вводим массив строк&lt;br&gt;StringArray = {...}&lt;br&gt;Вводим длину массива&lt;br&gt;ArrayLength = ...&lt;br&gt;Обозначаем&amp;nbsp; новый массив&lt;br&gt;NewStringArray = {}&lt;br&gt;i= 0" style="shape=parallelogram;perimeter=parallelogramPerimeter;whiteSpace=wrap;html=1;fixedSize=1;" vertex="1" parent="1">
          <mxGeometry x="157.5" y="110" width="215" height="100" as="geometry" />
        </mxCell>
        <mxCell id="0mrdC1juvUwRDSORbm4l-9" value="" style="edgeStyle=orthogonalEdgeStyle;rounded=0;orthogonalLoop=1;jettySize=auto;html=1;" edge="1" parent="1" source="0mrdC1juvUwRDSORbm4l-5" target="0mrdC1juvUwRDSORbm4l-8">
          <mxGeometry relative="1" as="geometry" />
        </mxCell>
        <mxCell id="0mrdC1juvUwRDSORbm4l-13" style="edgeStyle=orthogonalEdgeStyle;rounded=0;orthogonalLoop=1;jettySize=auto;html=1;" edge="1" parent="1" source="0mrdC1juvUwRDSORbm4l-5" target="0mrdC1juvUwRDSORbm4l-14">
          <mxGeometry relative="1" as="geometry">
            <mxPoint x="265" y="410" as="targetPoint" />
          </mxGeometry>
        </mxCell>
        <mxCell id="0mrdC1juvUwRDSORbm4l-5" value="i &amp;lt; ArrayLength" style="rhombus;whiteSpace=wrap;html=1;" vertex="1" parent="1">
          <mxGeometry x="178.75" y="250" width="172.5" height="130" as="geometry" />
        </mxCell>
        <mxCell id="0mrdC1juvUwRDSORbm4l-10" style="edgeStyle=orthogonalEdgeStyle;rounded=0;orthogonalLoop=1;jettySize=auto;html=1;exitX=1;exitY=0.5;exitDx=0;exitDy=0;entryX=0;entryY=0.5;entryDx=0;entryDy=0;" edge="1" parent="1" source="0mrdC1juvUwRDSORbm4l-8" target="0mrdC1juvUwRDSORbm4l-2">
          <mxGeometry relative="1" as="geometry" />
        </mxCell>
        <mxCell id="0mrdC1juvUwRDSORbm4l-8" value="Выводим&amp;nbsp; NewStringArray" style="shape=parallelogram;perimeter=parallelogramPerimeter;whiteSpace=wrap;html=1;fixedSize=1;" vertex="1" parent="1">
          <mxGeometry x="390" y="285" width="120" height="60" as="geometry" />
        </mxCell>
        <mxCell id="0mrdC1juvUwRDSORbm4l-11" value="No" style="text;html=1;strokeColor=none;fillColor=none;align=center;verticalAlign=middle;whiteSpace=wrap;rounded=0;" vertex="1" parent="1">
          <mxGeometry x="340" y="285" width="60" height="30" as="geometry" />
        </mxCell>
        <mxCell id="0mrdC1juvUwRDSORbm4l-16" value="" style="edgeStyle=orthogonalEdgeStyle;rounded=0;orthogonalLoop=1;jettySize=auto;html=1;" edge="1" parent="1" source="0mrdC1juvUwRDSORbm4l-14" target="0mrdC1juvUwRDSORbm4l-15">
          <mxGeometry relative="1" as="geometry" />
        </mxCell>
        <mxCell id="0mrdC1juvUwRDSORbm4l-18" value="" style="edgeStyle=orthogonalEdgeStyle;rounded=0;orthogonalLoop=1;jettySize=auto;html=1;entryX=1;entryY=0.5;entryDx=0;entryDy=0;" edge="1" parent="1" source="0mrdC1juvUwRDSORbm4l-14" target="0mrdC1juvUwRDSORbm4l-24">
          <mxGeometry relative="1" as="geometry">
            <mxPoint x="390" y="480" as="targetPoint" />
            <Array as="points">
              <mxPoint x="410" y="480" />
              <mxPoint x="410" y="710" />
            </Array>
          </mxGeometry>
        </mxCell>
        <mxCell id="0mrdC1juvUwRDSORbm4l-14" value="Длинна элемента&amp;nbsp; &amp;lt;= 3" style="rhombus;whiteSpace=wrap;html=1;" vertex="1" parent="1">
          <mxGeometry x="190" y="420" width="150" height="120" as="geometry" />
        </mxCell>
        <mxCell id="0mrdC1juvUwRDSORbm4l-25" value="" style="edgeStyle=orthogonalEdgeStyle;rounded=0;orthogonalLoop=1;jettySize=auto;html=1;" edge="1" parent="1" source="0mrdC1juvUwRDSORbm4l-15" target="0mrdC1juvUwRDSORbm4l-24">
          <mxGeometry relative="1" as="geometry" />
        </mxCell>
        <mxCell id="0mrdC1juvUwRDSORbm4l-15" value="NewStringArray[i] = StringArray[i]" style="whiteSpace=wrap;html=1;" vertex="1" parent="1">
          <mxGeometry x="172.5" y="580" width="185" height="60" as="geometry" />
        </mxCell>
        <mxCell id="0mrdC1juvUwRDSORbm4l-19" value="No" style="text;html=1;strokeColor=none;fillColor=none;align=center;verticalAlign=middle;whiteSpace=wrap;rounded=0;" vertex="1" parent="1">
          <mxGeometry x="330" y="450" width="60" height="30" as="geometry" />
        </mxCell>
        <mxCell id="0mrdC1juvUwRDSORbm4l-28" style="edgeStyle=orthogonalEdgeStyle;rounded=0;orthogonalLoop=1;jettySize=auto;html=1;entryX=0;entryY=0.5;entryDx=0;entryDy=0;" edge="1" parent="1" source="0mrdC1juvUwRDSORbm4l-24" target="0mrdC1juvUwRDSORbm4l-5">
          <mxGeometry relative="1" as="geometry">
            <Array as="points">
              <mxPoint x="120" y="710" />
              <mxPoint x="120" y="315" />
            </Array>
          </mxGeometry>
        </mxCell>
        <mxCell id="0mrdC1juvUwRDSORbm4l-24" value="i += 1" style="whiteSpace=wrap;html=1;" vertex="1" parent="1">
          <mxGeometry x="205" y="680" width="120" height="60" as="geometry" />
        </mxCell>
        <mxCell id="0mrdC1juvUwRDSORbm4l-26" value="Yes" style="text;html=1;align=center;verticalAlign=middle;resizable=0;points=[];autosize=1;strokeColor=none;fillColor=none;" vertex="1" parent="1">
          <mxGeometry x="270" y="538" width="40" height="30" as="geometry" />
        </mxCell>
        <mxCell id="0mrdC1juvUwRDSORbm4l-27" value="Yes" style="text;html=1;align=center;verticalAlign=middle;resizable=0;points=[];autosize=1;strokeColor=none;fillColor=none;" vertex="1" parent="1">
          <mxGeometry x="270" y="380" width="40" height="30" as="geometry" />
        </mxCell>
      </root>
    </mxGraphModel>
  </diagram>
</mxfile>
